<mxfile host="app.diagrams.net" agent="Mozilla/5.0 (Windows NT 10.0; Win64; x64) AppleWebKit/537.36 (KHTML, like Gecko) Chrome/131.0.0.0 Safari/537.36" version="25.0.3">
  <diagram name="Page-1" id="c-H6W2Q3fu2-MsxpZGts">
    <mxGraphModel dx="1290" dy="522" grid="1" gridSize="10" guides="1" tooltips="1" connect="1" arrows="1" fold="1" page="1" pageScale="1" pageWidth="850" pageHeight="1100" math="0" shadow="0">
      <root>
        <mxCell id="0" />
        <mxCell id="1" parent="0" />
        <mxCell id="2Aew3YWcZlrS4EnB1I8E-1" value=":Database" style="shape=umlLifeline;perimeter=lifelinePerimeter;whiteSpace=wrap;html=1;container=1;dropTarget=0;collapsible=0;recursiveResize=0;outlineConnect=0;portConstraint=eastwest;newEdgeStyle={&quot;curved&quot;:0,&quot;rounded&quot;:0};" vertex="1" parent="1">
          <mxGeometry x="480" y="40" width="100" height="500" as="geometry" />
        </mxCell>
        <mxCell id="2Aew3YWcZlrS4EnB1I8E-5" value="" style="html=1;points=[[0,0,0,0,5],[0,1,0,0,-5],[1,0,0,0,5],[1,1,0,0,-5]];perimeter=orthogonalPerimeter;outlineConnect=0;targetShapes=umlLifeline;portConstraint=eastwest;newEdgeStyle={&quot;curved&quot;:0,&quot;rounded&quot;:0};" vertex="1" parent="2Aew3YWcZlrS4EnB1I8E-1">
          <mxGeometry x="45" y="80" width="10" height="250" as="geometry" />
        </mxCell>
        <mxCell id="2Aew3YWcZlrS4EnB1I8E-21" value="" style="html=1;points=[[0,0,0,0,5],[0,1,0,0,-5],[1,0,0,0,5],[1,1,0,0,-5]];perimeter=orthogonalPerimeter;outlineConnect=0;targetShapes=umlLifeline;portConstraint=eastwest;newEdgeStyle={&quot;curved&quot;:0,&quot;rounded&quot;:0};" vertex="1" parent="2Aew3YWcZlrS4EnB1I8E-1">
          <mxGeometry x="45" y="410" width="10" height="80" as="geometry" />
        </mxCell>
        <mxCell id="2Aew3YWcZlrS4EnB1I8E-2" value=":Admin" style="shape=umlLifeline;perimeter=lifelinePerimeter;whiteSpace=wrap;html=1;container=1;dropTarget=0;collapsible=0;recursiveResize=0;outlineConnect=0;portConstraint=eastwest;newEdgeStyle={&quot;curved&quot;:0,&quot;rounded&quot;:0};" vertex="1" parent="1">
          <mxGeometry x="280" y="40" width="100" height="500" as="geometry" />
        </mxCell>
        <mxCell id="2Aew3YWcZlrS4EnB1I8E-7" value="" style="html=1;points=[[0,0,0,0,5],[0,1,0,0,-5],[1,0,0,0,5],[1,1,0,0,-5]];perimeter=orthogonalPerimeter;outlineConnect=0;targetShapes=umlLifeline;portConstraint=eastwest;newEdgeStyle={&quot;curved&quot;:0,&quot;rounded&quot;:0};" vertex="1" parent="2Aew3YWcZlrS4EnB1I8E-2">
          <mxGeometry x="45" y="140" width="10" height="80" as="geometry" />
        </mxCell>
        <mxCell id="2Aew3YWcZlrS4EnB1I8E-3" value=":Custoomer" style="shape=umlLifeline;perimeter=lifelinePerimeter;whiteSpace=wrap;html=1;container=1;dropTarget=0;collapsible=0;recursiveResize=0;outlineConnect=0;portConstraint=eastwest;newEdgeStyle={&quot;curved&quot;:0,&quot;rounded&quot;:0};" vertex="1" parent="1">
          <mxGeometry x="80" y="40" width="100" height="490" as="geometry" />
        </mxCell>
        <mxCell id="2Aew3YWcZlrS4EnB1I8E-4" value="" style="html=1;points=[[0,0,0,0,5],[0,1,0,0,-5],[1,0,0,0,5],[1,1,0,0,-5]];perimeter=orthogonalPerimeter;outlineConnect=0;targetShapes=umlLifeline;portConstraint=eastwest;newEdgeStyle={&quot;curved&quot;:0,&quot;rounded&quot;:0};" vertex="1" parent="2Aew3YWcZlrS4EnB1I8E-3">
          <mxGeometry x="45" y="80" width="10" height="410" as="geometry" />
        </mxCell>
        <mxCell id="2Aew3YWcZlrS4EnB1I8E-6" value="" style="endArrow=open;endFill=1;endSize=12;html=1;rounded=0;" edge="1" parent="1">
          <mxGeometry width="160" relative="1" as="geometry">
            <mxPoint x="130" y="140" as="sourcePoint" />
            <mxPoint x="530" y="140" as="targetPoint" />
          </mxGeometry>
        </mxCell>
        <mxCell id="2Aew3YWcZlrS4EnB1I8E-11" value="" style="endArrow=open;endFill=1;endSize=12;html=1;rounded=0;" edge="1" parent="1" source="2Aew3YWcZlrS4EnB1I8E-3" target="2Aew3YWcZlrS4EnB1I8E-2">
          <mxGeometry width="160" relative="1" as="geometry">
            <mxPoint x="340" y="270" as="sourcePoint" />
            <mxPoint x="500" y="270" as="targetPoint" />
            <Array as="points">
              <mxPoint x="230" y="190" />
            </Array>
          </mxGeometry>
        </mxCell>
        <mxCell id="2Aew3YWcZlrS4EnB1I8E-12" value="" style="endArrow=open;endFill=1;endSize=12;html=1;rounded=0;" edge="1" parent="1">
          <mxGeometry width="160" relative="1" as="geometry">
            <mxPoint x="140" y="240" as="sourcePoint" />
            <mxPoint x="330" y="240" as="targetPoint" />
          </mxGeometry>
        </mxCell>
        <mxCell id="2Aew3YWcZlrS4EnB1I8E-13" value="" style="endArrow=open;endFill=1;endSize=12;html=1;rounded=0;" edge="1" parent="1">
          <mxGeometry width="160" relative="1" as="geometry">
            <mxPoint x="330" y="220" as="sourcePoint" />
            <mxPoint x="530" y="220" as="targetPoint" />
            <Array as="points">
              <mxPoint x="430" y="220" />
            </Array>
          </mxGeometry>
        </mxCell>
        <mxCell id="2Aew3YWcZlrS4EnB1I8E-14" value="" style="endArrow=open;endSize=12;dashed=1;html=1;rounded=0;" edge="1" parent="1" source="2Aew3YWcZlrS4EnB1I8E-1" target="2Aew3YWcZlrS4EnB1I8E-4">
          <mxGeometry width="160" relative="1" as="geometry">
            <mxPoint x="340" y="270" as="sourcePoint" />
            <mxPoint x="500" y="270" as="targetPoint" />
          </mxGeometry>
        </mxCell>
        <mxCell id="2Aew3YWcZlrS4EnB1I8E-16" value="" style="endArrow=open;endFill=1;endSize=12;html=1;rounded=0;" edge="1" parent="1" target="2Aew3YWcZlrS4EnB1I8E-1">
          <mxGeometry width="160" relative="1" as="geometry">
            <mxPoint x="140" y="340" as="sourcePoint" />
            <mxPoint x="300" y="340" as="targetPoint" />
          </mxGeometry>
        </mxCell>
        <mxCell id="2Aew3YWcZlrS4EnB1I8E-18" value="" style="endArrow=open;endSize=12;dashed=1;html=1;rounded=0;" edge="1" parent="1">
          <mxGeometry width="160" relative="1" as="geometry">
            <mxPoint x="526.25" y="400" as="sourcePoint" />
            <mxPoint x="133.75" y="400" as="targetPoint" />
          </mxGeometry>
        </mxCell>
        <mxCell id="2Aew3YWcZlrS4EnB1I8E-19" value="" style="endArrow=open;endFill=1;endSize=12;html=1;rounded=0;" edge="1" parent="1">
          <mxGeometry width="160" relative="1" as="geometry">
            <mxPoint x="130" y="480" as="sourcePoint" />
            <mxPoint x="530" y="480" as="targetPoint" />
          </mxGeometry>
        </mxCell>
        <mxCell id="2Aew3YWcZlrS4EnB1I8E-20" value="" style="endArrow=open;endSize=12;dashed=1;html=1;rounded=0;" edge="1" parent="1">
          <mxGeometry width="160" relative="1" as="geometry">
            <mxPoint x="527.5" y="520" as="sourcePoint" />
            <mxPoint x="132.5" y="520" as="targetPoint" />
          </mxGeometry>
        </mxCell>
        <mxCell id="2Aew3YWcZlrS4EnB1I8E-23" value="" style="endArrow=open;endSize=12;dashed=1;html=1;rounded=0;" edge="1" parent="1" target="2Aew3YWcZlrS4EnB1I8E-22">
          <mxGeometry width="160" relative="1" as="geometry">
            <mxPoint x="527.5" y="410" as="sourcePoint" />
            <mxPoint x="132.5" y="410" as="targetPoint" />
          </mxGeometry>
        </mxCell>
        <mxCell id="2Aew3YWcZlrS4EnB1I8E-22" value="" style="html=1;points=[[0,0,0,0,5],[0,1,0,0,-5],[1,0,0,0,5],[1,1,0,0,-5]];perimeter=orthogonalPerimeter;outlineConnect=0;targetShapes=umlLifeline;portConstraint=eastwest;newEdgeStyle={&quot;curved&quot;:0,&quot;rounded&quot;:0};" vertex="1" parent="1">
          <mxGeometry x="525" y="400" width="10" height="30" as="geometry" />
        </mxCell>
        <mxCell id="2Aew3YWcZlrS4EnB1I8E-24" value="" style="endArrow=open;endFill=1;endSize=12;html=1;rounded=0;exitX=0;exitY=1;exitDx=0;exitDy=-5;exitPerimeter=0;" edge="1" parent="1">
          <mxGeometry width="160" relative="1" as="geometry">
            <mxPoint x="525" y="430" as="sourcePoint" />
            <mxPoint x="129.5" y="430" as="targetPoint" />
          </mxGeometry>
        </mxCell>
        <mxCell id="2Aew3YWcZlrS4EnB1I8E-25" value="Login" style="text;html=1;align=center;verticalAlign=middle;resizable=0;points=[];autosize=1;strokeColor=none;fillColor=none;" vertex="1" parent="1">
          <mxGeometry x="225" y="118" width="50" height="30" as="geometry" />
        </mxCell>
        <mxCell id="2Aew3YWcZlrS4EnB1I8E-26" value="Search stock" style="text;html=1;align=center;verticalAlign=middle;resizable=0;points=[];autosize=1;strokeColor=none;fillColor=none;" vertex="1" parent="1">
          <mxGeometry x="175" y="168" width="90" height="30" as="geometry" />
        </mxCell>
        <mxCell id="2Aew3YWcZlrS4EnB1I8E-27" value="Check items" style="text;html=1;align=center;verticalAlign=middle;resizable=0;points=[];autosize=1;strokeColor=none;fillColor=none;" vertex="1" parent="1">
          <mxGeometry x="370" y="198" width="90" height="30" as="geometry" />
        </mxCell>
        <mxCell id="2Aew3YWcZlrS4EnB1I8E-29" value="&lt;span style=&quot;font-size: 11px; background-color: rgb(255, 255, 255);&quot;&gt;Select items&lt;/span&gt;" style="text;html=1;align=center;verticalAlign=middle;resizable=0;points=[];autosize=1;strokeColor=none;fillColor=none;" vertex="1" parent="1">
          <mxGeometry x="185" y="210" width="80" height="30" as="geometry" />
        </mxCell>
        <mxCell id="2Aew3YWcZlrS4EnB1I8E-30" value="Successfully select the items" style="text;html=1;align=center;verticalAlign=middle;resizable=0;points=[];autosize=1;strokeColor=none;fillColor=none;" vertex="1" parent="1">
          <mxGeometry x="260" y="268" width="180" height="30" as="geometry" />
        </mxCell>
        <mxCell id="2Aew3YWcZlrS4EnB1I8E-31" value="Check Order" style="text;html=1;align=center;verticalAlign=middle;resizable=0;points=[];autosize=1;strokeColor=none;fillColor=none;" vertex="1" parent="1">
          <mxGeometry x="245" y="318" width="90" height="30" as="geometry" />
        </mxCell>
        <mxCell id="2Aew3YWcZlrS4EnB1I8E-32" value="Oerder confirmed" style="text;html=1;align=center;verticalAlign=middle;resizable=0;points=[];autosize=1;strokeColor=none;fillColor=none;" vertex="1" parent="1">
          <mxGeometry x="240" y="378" width="120" height="30" as="geometry" />
        </mxCell>
        <mxCell id="2Aew3YWcZlrS4EnB1I8E-33" value="Create bill" style="text;html=1;align=center;verticalAlign=middle;resizable=0;points=[];autosize=1;strokeColor=none;fillColor=none;" vertex="1" parent="1">
          <mxGeometry x="270" y="408" width="80" height="30" as="geometry" />
        </mxCell>
        <mxCell id="2Aew3YWcZlrS4EnB1I8E-34" value="Pay bill" style="text;html=1;align=center;verticalAlign=middle;resizable=0;points=[];autosize=1;strokeColor=none;fillColor=none;" vertex="1" parent="1">
          <mxGeometry x="250" y="458" width="60" height="30" as="geometry" />
        </mxCell>
        <mxCell id="2Aew3YWcZlrS4EnB1I8E-35" value="Successfully paid {message}" style="text;html=1;align=center;verticalAlign=middle;resizable=0;points=[];autosize=1;strokeColor=none;fillColor=none;" vertex="1" parent="1">
          <mxGeometry x="220" y="498" width="180" height="30" as="geometry" />
        </mxCell>
      </root>
    </mxGraphModel>
  </diagram>
</mxfile>
